<?xml version="1.0" encoding="utf-8"?>
<!-- Generator: Adobe Illustrator 16.0.0, SVG Export Plug-In . SVG Version: 6.00 Build 0)  -->
<!DOCTYPE svg PUBLIC "-//W3C//DTD SVG 1.1//EN" "http://www.w3.org/Graphics/SVG/1.1/DTD/svg11.dtd">
<svg version="1.1" id="Layer_1" xmlns="http://www.w3.org/2000/svg" xmlns:xlink="http://www.w3.org/1999/xlink" x="0px" y="0px"
	 width="50px" height="50px" viewBox="0 0 50 50" enable-background="new 0 0 50 50" xml:space="preserve">
<g>
	<g>
		<path d="M10.852,15.112c0.943-3.183,4.163-4.23,7.194-3.683c3.817,0.689,3.834,7.283,3.943,9.985
			c0.207,5.124,2.496,9.938,5.978,13.634c2.942,3.123,7.563,2.744,10.672,0.117c4.141-3.499,5.956-8.024,5.94-13.408
			c-0.009-3.224-5.009-3.225-5,0c0.01,3.575-0.923,6.401-3.422,8.982c-4.106,4.24-7.164-2.146-8.402-5.4
			c-2.023-5.316-0.298-10.75-3.936-15.617C18.879,3.114,8.162,6.587,6.03,13.783C5.112,16.882,9.938,18.197,10.852,15.112
			L10.852,15.112z"/>
	</g>
</g>
<g>
	<g>
		<path d="M7.572,28.362c2.164,6.662,9.508,9.985,14.398,3.693c2.085-2.683,2.832-6.261,3.861-9.432
			c0.826-2.543,1.387-5.362,3.117-7.465c2.553-3.104,9.184-5.879,10.948-0.046c0.932,3.078,5.758,1.765,4.822-1.329
			c-2.595-8.572-12.466-8.505-18.288-3.195c-3.281,2.992-4.009,6.688-5.42,10.706c-0.624,1.774-1.119,3.589-1.748,5.362
			c-1.369,3.861-5.243,5.383-6.869,0.376C11.402,23.98,6.573,25.287,7.572,28.362L7.572,28.362z"/>
	</g>
</g>
</svg>
