<?xml version="1.0" encoding="utf-8"?>
<!-- Generator: Adobe Illustrator 16.0.0, SVG Export Plug-In . SVG Version: 6.00 Build 0)  -->
<!DOCTYPE svg PUBLIC "-//W3C//DTD SVG 1.1//EN" "http://www.w3.org/Graphics/SVG/1.1/DTD/svg11.dtd">
<svg version="1.1" id="Capa_1" xmlns="http://www.w3.org/2000/svg" xmlns:xlink="http://www.w3.org/1999/xlink" x="0px" y="0px"
	 width="50px" height="50px" viewBox="0 0 50 50" enable-background="new 0 0 50 50" xml:space="preserve">
<path fill="#FFFFFF" d="M50,25C50,11.215,38.785,0,25,0S0,11.215,0,25c0,5.118,1.548,9.881,4.198,13.848l-0.001,0.018l0.172,0.253
	c0.15,0.22,0.312,0.427,0.468,0.64c0.063,0.088,0.126,0.175,0.191,0.262c0.198,0.264,0.402,0.521,0.61,0.775
	c0.06,0.073,0.121,0.146,0.182,0.219c0.964,1.154,2.022,2.211,3.161,3.161c0.069,0.058,0.137,0.116,0.208,0.173
	c0.248,0.203,0.499,0.401,0.755,0.594c0.104,0.078,0.208,0.154,0.313,0.23c0.243,0.179,0.487,0.355,0.737,0.525
	c0.133,0.09,0.271,0.176,0.407,0.264c0.346,0.225,0.696,0.442,1.053,0.648c0.248,0.146,0.498,0.29,0.751,0.426
	c0.153,0.083,0.31,0.16,0.465,0.239c0.27,0.138,0.543,0.272,0.818,0.4c0.139,0.064,0.278,0.128,0.418,0.189
	c0.319,0.142,0.643,0.276,0.968,0.404c0.101,0.04,0.201,0.081,0.303,0.12c0.894,0.338,1.813,0.628,2.751,0.863
	c0.039,0.01,0.078,0.018,0.116,0.026c0.415,0.102,0.834,0.192,1.258,0.273c0.112,0.021,0.225,0.04,0.337,0.061
	c0.017,0.003,0.033,0.006,0.049,0.009l-0.002,0.017l0.44,0.062c0.1,0.016,0.2,0.027,0.3,0.041l0.092,0.014
	c0.018,0.002,0.034,0.003,0.052,0.004c0.045,0.006,0.091,0.012,0.136,0.018c0.137,0.019,0.272,0.036,0.409,0.053
	c0.331,0.039,0.663,0.068,0.998,0.094c0.07,0.005,0.14,0.014,0.209,0.018c0.08,0.006,0.161,0.012,0.241,0.017
	C24.039,49.982,24.518,50,25,50s0.961-0.018,1.437-0.044c0.083-0.005,0.165-0.011,0.247-0.017c0.07-0.006,0.141-0.014,0.211-0.019
	c0.332-0.024,0.663-0.056,0.991-0.093c0.137-0.016,0.273-0.034,0.409-0.053c0.055-0.007,0.108-0.013,0.162-0.021
	c0.016-0.003,0.033-0.003,0.051-0.005l0.084-0.012c0.094-0.014,0.189-0.025,0.282-0.04l0.468-0.065l-0.002-0.018
	c0.007-0.002,0.014-0.003,0.021-0.004c0.113-0.021,0.226-0.039,0.338-0.062c0.424-0.081,0.842-0.171,1.258-0.272
	c0.038-0.01,0.077-0.018,0.115-0.027c0.939-0.234,1.857-0.525,2.752-0.863c0.102-0.039,0.203-0.08,0.305-0.12
	c0.325-0.128,0.648-0.263,0.967-0.403c0.141-0.062,0.28-0.125,0.418-0.189c0.276-0.128,0.549-0.262,0.818-0.4
	c0.156-0.079,0.313-0.156,0.465-0.238c0.255-0.137,0.503-0.281,0.752-0.426c0.357-0.207,0.708-0.424,1.054-0.649
	c0.136-0.089,0.273-0.173,0.407-0.265c0.248-0.168,0.492-0.346,0.736-0.523c0.104-0.076,0.209-0.152,0.313-0.23
	c0.255-0.193,0.506-0.392,0.755-0.594c0.069-0.058,0.138-0.116,0.208-0.174c1.138-0.951,2.195-2.008,3.161-3.162
	c0.061-0.072,0.12-0.145,0.18-0.218c0.208-0.254,0.412-0.513,0.61-0.775c0.064-0.086,0.127-0.173,0.19-0.261
	c0.157-0.214,0.318-0.421,0.469-0.641l0.173-0.252l-0.002-0.018C48.451,34.881,50,30.118,50,25z M48.334,25
	c0,4.144-1.092,8.035-2.993,11.412c-1.339-4.44-5.271-7.658-9.987-8.035l-0.031-0.043h-0.896h-3.982h-0.972
	c-0.169,0-0.306-0.137-0.306-0.305v-0.537c0-0.152,0.125-0.253,0.23-0.294c5.366-2.018,8.713-10.387,8.012-16.24
	c-0.367-3.048-1.875-5.772-4.07-7.746C42.098,6.577,48.334,15.072,48.334,25z M43.781,38.825c-0.066,0.091-0.135,0.181-0.203,0.271
	c-0.186,0.244-0.373,0.486-0.568,0.724c-0.02,0.024-0.041,0.048-0.061,0.071c-0.674,0.811-1.4,1.574-2.176,2.286
	c-0.046,0.042-0.092,0.086-0.139,0.128c-0.23,0.209-0.467,0.412-0.707,0.611c-0.074,0.063-0.15,0.125-0.227,0.187
	c-0.232,0.188-0.467,0.375-0.705,0.556c-0.081,0.061-0.164,0.117-0.246,0.178c-0.138,0.101-0.277,0.198-0.416,0.296V40h-1.668v5.194
	c-0.031,0.019-0.064,0.037-0.098,0.057c-0.213,0.122-0.425,0.242-0.641,0.356c-0.148,0.078-0.298,0.154-0.447,0.23
	c-0.252,0.127-0.506,0.249-0.762,0.366c-0.125,0.058-0.248,0.115-0.375,0.17c-0.32,0.14-0.645,0.273-0.971,0.399
	c-0.068,0.025-0.134,0.055-0.201,0.079c-0.834,0.312-1.686,0.577-2.553,0.792c-0.063,0.016-0.126,0.027-0.188,0.043
	c-0.358,0.086-0.721,0.164-1.085,0.232c-0.085,0.016-0.171,0.031-0.256,0.046l-1.455-9.632h0.699v-2.055l3.725,2.483l3.479-8.693
	c4.398,0.495,7.936,3.894,8.539,8.343C43.979,38.551,43.883,38.689,43.781,38.825z M19.568,47.688
	c-0.063-0.015-0.125-0.028-0.188-0.044c-0.868-0.215-1.72-0.479-2.553-0.791c-0.068-0.025-0.134-0.054-0.201-0.079
	c-0.327-0.126-0.651-0.259-0.971-0.399c-0.126-0.055-0.251-0.112-0.376-0.17c-0.255-0.117-0.509-0.24-0.761-0.367
	c-0.15-0.075-0.3-0.15-0.447-0.229c-0.216-0.114-0.428-0.235-0.641-0.356c-0.032-0.02-0.065-0.037-0.098-0.057V40h-1.667v4.132
	c-0.139-0.098-0.279-0.196-0.417-0.296c-0.082-0.061-0.165-0.117-0.246-0.178c-0.239-0.181-0.474-0.367-0.705-0.555
	c-0.077-0.063-0.152-0.125-0.229-0.188c-0.239-0.199-0.475-0.402-0.705-0.611c-0.048-0.042-0.094-0.086-0.14-0.129
	c-0.775-0.713-1.502-1.475-2.175-2.285c-0.02-0.023-0.041-0.047-0.061-0.071c-0.195-0.237-0.383-0.479-0.568-0.724
	c-0.068-0.09-0.137-0.18-0.204-0.271c-0.1-0.136-0.196-0.274-0.293-0.413c0.603-4.449,4.14-7.848,8.539-8.343l3.478,8.693
	l3.726-2.483v2.055h0.7l-1.434,9.638c-0.093-0.017-0.187-0.032-0.279-0.05C20.29,47.853,19.928,47.774,19.568,47.688z
	 M21.243,25.659c-3.985-1.474-7.076-8.284-7.076-13.159c0-0.106,0.013-0.211,0.016-0.317l0.61-0.752
	c1.376-1.637,3.724-2.105,5.843-1.167c0.852,0.378,1.759,0.569,2.698,0.569c2.475,0,4.7-1.346,5.856-3.487
	c2.652,0.871,5.02,2.513,6.619,4.582c0.244,5.083-2.744,12.111-6.998,13.71c-0.797,0.3-1.311,1.027-1.311,1.854v0.537
	c0,0.955,0.684,1.752,1.587,1.933l-1.422,1.704h-5.33l-1.422-1.705c0.904-0.18,1.587-0.978,1.587-1.932V27.5
	C22.5,26.678,21.996,25.938,21.243,25.659z M25.033,1.668c0.01,0,0.019,0,0.028,0c0.407,0.002,0.808,0.025,1.191,0.069
	c4.133,0.461,7.605,3.338,8.961,7.158c-1.763-1.535-3.924-2.717-6.248-3.356l-0.717-0.197l-0.277,0.688
	c-0.768,1.904-2.587,3.136-4.637,3.136c-0.704,0-1.385-0.143-2.022-0.426c-2.305-1.02-4.822-0.744-6.681,0.608
	c0.511-1.688,1.434-3.235,2.718-4.517C19.393,2.792,22.108,1.668,25.033,1.668z M28.334,33.469L31.225,30h2.545l-2.494,6.236
	l-2.941-1.959V33.469z M26.971,48.24c-0.225,0.02-0.451,0.041-0.674,0.054c-0.429,0.023-0.859,0.04-1.291,0.04
	c-0.028,0-0.058-0.003-0.086-0.003c-0.404-0.002-0.808-0.015-1.208-0.037c-0.22-0.013-0.442-0.034-0.664-0.052
	c-0.155-0.014-0.309-0.026-0.463-0.043l1.467-9.865h1.897l1.488,9.863C27.283,48.213,27.127,48.227,26.971,48.24z M26.666,36.666
	h-3.333v-1.498v-1.834h3.333v1.834V36.666z M21.667,33.469v0.809l-2.941,1.96L16.231,30h2.545L21.667,33.469z M16.652,3.217
	c-0.161,0.145-0.327,0.282-0.482,0.436C13.803,6.015,12.5,9.156,12.5,12.5c0,5.524,3.492,12.994,8.164,14.722
	c0.099,0.038,0.169,0.151,0.169,0.278v0.529c0,0.168-0.137,0.305-0.304,0.305h-0.972h-3.982h-0.455c-0.08,0-0.159,0.012-0.234,0.031
	c-4.821,0.287-8.865,3.533-10.227,8.047C2.757,33.035,1.667,29.144,1.667,25C1.667,15.075,7.898,6.583,16.652,3.217z"/>
</svg>
