<?xml version="1.0" encoding="utf-8"?>
<!-- Generator: Adobe Illustrator 16.0.0, SVG Export Plug-In . SVG Version: 6.00 Build 0)  -->
<!DOCTYPE svg PUBLIC "-//W3C//DTD SVG 1.1//EN" "http://www.w3.org/Graphics/SVG/1.1/DTD/svg11.dtd">
<svg version="1.1" id="Layer_1" xmlns="http://www.w3.org/2000/svg" xmlns:xlink="http://www.w3.org/1999/xlink" x="0px" y="0px"
	 width="50px" height="50px" viewBox="0 0 50 50" enable-background="new 0 0 50 50" xml:space="preserve">
<path fill="#FFFFFF" d="M0.577,26.923C0.192,26.539,0,25.961,0,25.577c0-0.385,0.192-0.962,0.577-1.346l2.692-2.692
	c0.77-0.77,1.923-0.77,2.692,0l0.192,0.192l10.577,11.346c0.384,0.384,0.961,0.384,1.346,0L43.846,6.346h0.193l0,0
	c0.769-0.769,1.922-0.769,2.691,0l2.692,2.692c0.77,0.769,0.77,1.923,0,2.692l0,0L18.654,43.654
	c-0.385,0.385-0.769,0.576-1.346,0.576c-0.577,0-0.961-0.191-1.346-0.576l-15-16.154L0.577,26.923z"/>
</svg>
